<svg width="704" height="175" viewBox="0 0 704 175" fill="none" xmlns="http://www.w3.org/2000/svg">
<rect x="11.5264" y="12.1702" width="691.474" height="161.697" fill="#00FF17" stroke="#14201B" stroke-width="2"/>
<rect x="1" y="1.86719" width="691.474" height="161.697" fill="#00FF17" stroke="#14201B" stroke-width="2"/>
<path d="M53.8095 22.97V21.71H62.8995V22.97H53.8095ZM63.9873 22.97V21.71H73.0773V22.97H63.9873ZM74.165 22.97V21.71H83.255V22.97H74.165ZM84.3427 22.97V21.71H93.4327V22.97H84.3427ZM94.5205 22.97V21.71H103.61V22.97H94.5205ZM125.968 22.97V21.71H135.058V22.97H125.968ZM136.145 22.97V21.71H145.235V22.97H136.145ZM146.323 22.97V21.71H155.413V22.97H146.323ZM156.501 22.97V21.71H165.591V22.97H156.501ZM179.44 22.97V21.71H188.53V22.97H179.44ZM215.142 22.97V21.71H224.232V22.97H215.142ZM225.319 22.97V21.71H234.409V22.97H225.319ZM252.513 22.97V21.71H261.603V22.97H252.513ZM262.69 22.97V21.71H271.78V22.97H262.69ZM272.868 22.97V21.71H281.958V22.97H272.868ZM283.046 22.97V21.71H292.136V22.97H283.046ZM293.224 22.97V21.71H302.314V22.97H293.224ZM303.401 22.97V21.71H312.491V22.97H303.401ZM313.579 22.97V21.71H322.669V22.97H313.579ZM332.265 22.97V21.71H341.355V22.97H332.265ZM342.442 22.97V21.71H351.532V22.97H342.442ZM352.62 22.97V21.71H361.71V22.97H352.62ZM362.798 22.97V21.71H371.888V22.97H362.798ZM372.976 22.97V21.71H382.066V22.97H372.976ZM391.661 22.97V21.71H400.751V22.97H391.661ZM427.362 22.97V21.71H436.452V22.97H427.362ZM437.54 22.97V21.71H446.63V22.97H437.54ZM447.718 22.97V21.71H456.808V22.97H447.718ZM466.403 22.97V21.71H475.493V22.97H466.403ZM476.581 22.97V21.71H485.671V22.97H476.581ZM516.536 22.97V21.71H525.626V22.97H516.536ZM526.714 22.97V21.71H535.804V22.97H526.714ZM541.145 22.97V21.71H550.235V22.97H541.145ZM551.323 22.97V21.71H560.413V22.97H551.323ZM561.501 22.97V21.71H570.591V22.97H561.501ZM571.679 22.97V21.71H580.769V22.97H571.679ZM581.856 22.97V21.71H590.946V22.97H581.856ZM592.034 22.97V21.71H601.124V22.97H592.034ZM610.72 22.97V21.71H619.81V22.97H610.72ZM620.897 22.97V21.71H629.987V22.97H620.897ZM631.075 22.97V21.71H640.165V22.97H631.075ZM641.253 22.97V21.71H650.343V22.97H641.253ZM651.431 22.97V21.71H660.521V22.97H651.431ZM44.9237 45.718L49.6217 29.68H50.9177L46.2197 45.718H44.9237ZM56.4463 45.97V44.71H65.5363V45.97H56.4463ZM66.624 45.97V44.71H75.714V45.97H66.624ZM76.8017 45.97V44.71H85.8917V45.97H76.8017ZM86.9795 45.97V44.71H96.0695V45.97H86.9795ZM96.7792 45.718L101.477 29.68H102.773L98.0752 45.718H96.7792ZM112.178 45.718L116.876 29.68H118.172L113.474 45.718H112.178ZM136.462 45.97V44.71H145.552V45.97H136.462ZM146.64 45.97V44.71H155.73V45.97H146.64ZM174.421 45.718L169.759 29.68H171.055L175.717 45.718H174.421ZM178.144 45.484V29.32H179.368V45.484H178.144ZM199.734 45.718L195.072 29.68H196.368L201.03 45.718H199.734ZM216.218 45.484V29.32H217.442V45.484H216.218ZM243.148 45.484V29.32H244.372V45.484H243.148ZM253.062 45.484V29.32H254.286V45.484H253.062ZM257.048 45.97V44.71H266.138V45.97H257.048ZM267.226 45.97V44.71H276.316V45.97H267.226ZM302.927 45.97V44.71H312.017V45.97H302.927ZM313.104 45.97V44.71H322.194V45.97H313.104ZM324.956 45.484V29.32H326.18V45.484H324.956ZM330.616 45.484V29.32H331.84V45.484H330.616ZM334.603 45.97V44.71H343.693V45.97H334.603ZM374.558 45.97V44.71H383.648V45.97H374.558ZM386.409 45.484V29.32H387.633V45.484H386.409ZM392.069 45.484V29.32H393.293V45.484H392.069ZM413.659 45.718L408.997 29.68H410.293L414.955 45.718H413.659ZM425.89 45.484V29.32H427.114V45.484H425.89ZM457.073 45.484V29.32H458.297V45.484H457.073ZM462.734 45.484V29.32H463.958V45.484H462.734ZM485.409 45.484V29.32H486.633V45.484H485.409ZM512.339 45.484V29.32H513.563V45.484H512.339ZM530.761 45.484V29.32H531.985V45.484H530.761ZM536.421 45.484V29.32H537.645V45.484H536.421ZM553.169 45.97V44.71H562.259V45.97H553.169ZM563.347 45.97V44.71H572.437V45.97H563.347ZM573.524 45.97V44.71H582.614V45.97H573.524ZM583.702 45.97V44.71H592.792V45.97H583.702ZM599.808 45.484V29.32H601.032V45.484H599.808ZM605.468 45.484V29.32H606.692V45.484H605.468ZM609.454 45.97V44.71H618.544V45.97H609.454ZM619.632 45.97V44.71H628.722V45.97H619.632ZM629.81 45.97V44.71H638.9V45.97H629.81ZM666.099 45.718L661.437 29.68H662.733L667.395 45.718H666.099ZM42.7218 68.484V52.32H43.9458V68.484H42.7218ZM56.8898 68.484V52.32H58.1138V68.484H56.8898ZM113.597 68.484V52.32H114.821V68.484H113.597ZM132.019 68.484V52.32H133.243V68.484H132.019ZM158.948 68.484V52.32H160.172V68.484H158.948ZM177.37 68.484V52.32H178.594V68.484H177.37ZM207.468 68.718L202.806 52.68H204.102L208.764 68.718H207.468ZM215.444 68.484V52.32H216.668V68.484H215.444ZM242.374 68.484V52.32H243.598V68.484H242.374ZM277.812 68.484V52.32H279.036V68.484H277.812ZM300.487 68.484V52.32H301.711V68.484H300.487ZM348.687 68.484V52.32H349.911V68.484H348.687ZM375.616 68.484V52.32H376.84V68.484H375.616ZM394.038 68.484V52.32H395.262V68.484H394.038ZM419.882 68.718L415.22 52.68H416.516L421.178 68.718H419.882ZM423.605 68.484V52.32H424.829V68.484H423.605ZM459.042 68.484V52.32H460.266V68.484H459.042ZM464.702 68.484V52.32H465.926V68.484H464.702ZM483.124 68.484V52.32H484.348V68.484H483.124ZM510.054 68.484V52.32H511.278V68.484H510.054ZM528.476 68.484V52.32H529.7V68.484H528.476ZM534.136 68.484V52.32H535.36V68.484H534.136ZM552.558 68.484V52.32H553.782V68.484H552.558ZM556.544 68.97V67.71H565.634V68.97H556.544ZM566.722 68.97V67.71H575.812V68.97H566.722ZM644.704 60.384C644.704 61.26 644.614 62.106 644.434 62.922C644.266 63.726 644.032 64.476 643.732 65.172C643.444 65.868 643.102 66.498 642.706 67.062C642.31 67.626 641.89 68.094 641.446 68.466H640.078C640.57 68.034 641.014 67.53 641.41 66.954C641.818 66.378 642.166 65.766 642.454 65.118C642.742 64.47 642.964 63.81 643.12 63.138C643.276 62.466 643.354 61.812 643.354 61.176V59.628C643.354 59.004 643.276 58.356 643.12 57.684C642.964 57.012 642.742 56.352 642.454 55.704C642.178 55.056 641.836 54.444 641.428 53.868C641.032 53.292 640.582 52.776 640.078 52.32H641.446C641.902 52.716 642.328 53.196 642.724 53.76C643.12 54.324 643.462 54.954 643.75 55.65C644.05 56.334 644.284 57.078 644.452 57.882C644.62 58.686 644.704 59.52 644.704 60.384ZM665.427 68.484V52.32H666.651V68.484H665.427ZM42.7218 91.484V75.32H43.9458V91.484H42.7218ZM56.8898 91.484V75.32H58.1138V91.484H56.8898ZM113.597 91.484V75.32H114.821V91.484H113.597ZM132.019 91.484V75.32H133.243V91.484H132.019ZM158.948 91.484V75.32H160.172V91.484H158.948ZM177.37 91.484V75.32H178.594V91.484H177.37ZM204.534 89.216C204.15 89.216 203.868 89.12 203.688 88.928C203.52 88.736 203.436 88.484 203.436 88.172V87.938C203.436 87.626 203.52 87.374 203.688 87.182C203.868 86.99 204.15 86.894 204.534 86.894C204.918 86.894 205.194 86.99 205.362 87.182C205.542 87.374 205.632 87.626 205.632 87.938V88.172C205.632 88.484 205.542 88.736 205.362 88.928C205.194 89.12 204.918 89.216 204.534 89.216ZM210.356 75.608L211.67 74.978L213.2 78.038L212.264 78.47L210.356 75.608ZM241.267 91.484V75.32H242.491V91.484H241.267ZM276.704 91.484V75.32H277.928V91.484H276.704ZM299.38 91.484V75.32H300.604V91.484H299.38ZM347.579 91.484V75.32H348.803V91.484H347.579ZM374.509 91.484V75.32H375.733V91.484H374.509ZM392.931 91.484V75.32H394.155V91.484H392.931ZM420.094 89.216C419.71 89.216 419.428 89.12 419.248 88.928C419.08 88.736 418.996 88.484 418.996 88.172V87.938C418.996 87.626 419.08 87.374 419.248 87.182C419.428 86.99 419.71 86.894 420.094 86.894C420.478 86.894 420.754 86.99 420.922 87.182C421.102 87.374 421.192 87.626 421.192 87.938V88.172C421.192 88.484 421.102 88.736 420.922 88.928C420.754 89.12 420.478 89.216 420.094 89.216ZM425.917 75.608L427.231 74.978L428.761 78.038L427.825 78.47L425.917 75.608ZM456.827 91.484V75.32H458.051V91.484H456.827ZM462.487 91.484V75.32H463.711V91.484H462.487ZM480.909 91.484V75.32H482.133V91.484H480.909ZM507.839 91.484V75.32H509.063V91.484H507.839ZM526.261 91.484V75.32H527.485V91.484H526.261ZM531.921 91.484V75.32H533.145V91.484H531.921ZM552.923 91.97V90.71H562.013V91.97H552.923ZM563.101 91.97V90.71H572.191V91.97H563.101ZM574.952 91.484V75.32H576.176V91.484H574.952ZM629.607 91.718L634.305 75.68H635.601L630.903 91.718H629.607ZM657.767 91.718L662.465 75.68H663.761L659.063 91.718H657.767ZM42.7218 114.484V98.32H43.9458V114.484H42.7218ZM56.8898 114.484V98.32H58.1138V114.484H56.8898ZM60.8759 114.97V113.71H69.9659V114.97H60.8759ZM71.0537 114.97V113.71H80.1437V114.97H71.0537ZM81.2314 114.97V113.71H90.3214V114.97H81.2314ZM91.4091 114.97V113.71H100.499V114.97H91.4091ZM111.769 114.484V98.32H112.993V114.484H111.769ZM130.191 114.484V98.32H131.415V114.484H130.191ZM134.177 114.97V113.71H143.267V114.97H134.177ZM144.354 114.97V113.71H153.444V114.97H144.354ZM156.206 114.484V98.32H157.43V114.484H156.206ZM174.628 114.484V98.32H175.852V114.484H174.628ZM197.304 114.484V98.32H198.528V114.484H197.304ZM214.64 114.718L209.978 98.68H211.274L215.936 114.718H214.64ZM239.632 114.484V98.32H240.856V114.484H239.632ZM275.069 114.484V98.32H276.293V114.484H275.069ZM297.745 114.484V98.32H298.969V114.484H297.745ZM331.509 114.97V113.71H340.599V114.97H331.509ZM343.36 114.484V98.32H344.584V114.484H343.36ZM370.29 114.484V98.32H371.514V114.484H370.29ZM374.276 114.97V113.71H383.366V114.97H374.276ZM394.636 114.484V98.32H395.86V114.484H394.636ZM421.566 114.484V98.32H422.79V114.484H421.566ZM434.648 114.718L429.986 98.68H431.282L435.944 114.718H434.648ZM455.386 114.484V98.32H456.61V114.484H455.386ZM461.046 114.484V98.32H462.27V114.484H461.046ZM479.468 114.484V98.32H480.692V114.484H479.468ZM483.454 114.97V113.71H492.544V114.97H483.454ZM493.632 114.97V113.71H502.722V114.97H493.632ZM505.484 114.484V98.32H506.708V114.484H505.484ZM523.905 114.484V98.32H525.129V114.484H523.905ZM533.819 114.484V98.32H535.043V114.484H533.819ZM552.241 114.484V98.32H553.465V114.484H552.241ZM556.228 114.97V113.71H565.318V114.97H556.228ZM566.405 114.97V113.71H575.495V114.97H566.405ZM576.583 114.97V113.71H585.673V114.97H576.583ZM586.761 114.97V113.71H595.851V114.97H586.761ZM628.39 114.484V98.32H629.614V114.484H628.39ZM632.376 114.97V113.71H641.466V114.97H632.376ZM642.554 114.97V113.71H651.644V114.97H642.554ZM654.405 114.484V98.32H655.629V114.484H654.405ZM50.1437 137.718L45.4817 121.68H46.7777L51.4397 137.718H50.1437ZM52.1923 137.97V136.71H61.2823V137.97H52.1923ZM62.3701 137.97V136.71H71.4601V137.97H62.3701ZM72.5478 137.97V136.71H81.6378V137.97H72.5478ZM82.7255 137.97V136.71H91.8155V137.97H82.7255ZM92.9033 137.97V136.71H101.993V137.97H92.9033ZM107.923 137.718L103.261 121.68H104.557L109.219 137.718H107.923ZM119.068 137.718L114.406 121.68H115.702L120.364 137.718H119.068ZM121.116 137.97V136.71H130.206V137.97H121.116ZM131.294 137.97V136.71H140.384V137.97H131.294ZM141.472 137.97V136.71H150.562V137.97H141.472ZM151.649 137.97V136.71H160.739V137.97H151.649ZM161.449 137.718L166.147 121.68H167.443L162.745 137.718H161.449ZM174.646 137.484V121.32H175.87V137.484H174.646ZM178.632 137.97V136.71H187.722V137.97H178.632ZM188.81 137.97V136.71H197.9V137.97H188.81ZM200.661 137.484V121.32H201.885V137.484H200.661ZM226.505 137.718L221.843 121.68H223.139L227.801 137.718H226.505ZM228.554 137.97V136.71H237.644V137.97H228.554ZM240.405 137.484V121.32H241.629V137.484H240.405ZM275.843 137.484V121.32H277.067V137.484H275.843ZM279.829 137.97V136.71H288.919V137.97H279.829ZM290.007 137.97V136.71H299.097V137.97H290.007ZM301.859 137.484V121.32H303.083V137.484H301.859ZM333.042 137.484V121.32H334.266V137.484H333.042ZM337.028 137.97V136.71H346.118V137.97H337.028ZM347.206 137.97V136.71H356.296V137.97H347.206ZM357.384 137.97V136.71H366.474V137.97H357.384ZM367.561 137.97V136.71H376.651V137.97H367.561ZM377.739 137.97V136.71H386.829V137.97H377.739ZM389.591 137.484V121.32H390.815V137.484H389.591ZM395.251 137.484V121.32H396.475V137.484H395.251ZM399.237 137.97V136.71H408.327V137.97H399.237ZM409.415 137.97V136.71H418.505V137.97H409.415ZM421.267 137.484V121.32H422.491V137.484H421.267ZM442.857 137.718L438.195 121.68H439.491L444.153 137.718H442.857ZM444.905 137.97V136.71H453.995V137.97H444.905ZM456.757 137.484V121.32H457.981V137.484H456.757ZM469.839 137.718L465.177 121.68H466.473L471.135 137.718H469.839ZM471.888 137.97V136.71H480.978V137.97H471.888ZM482.065 137.97V136.71H491.155V137.97H482.065ZM492.243 137.97V136.71H501.333V137.97H492.243ZM502.421 137.97V136.71H511.511V137.97H502.421ZM512.221 137.718L516.919 121.68H518.215L513.517 137.718H512.221ZM533.925 137.484V121.32H535.149V137.484H533.925ZM537.911 137.97V136.71H547.001V137.97H537.911ZM548.089 137.97V136.71H557.179V137.97H548.089ZM558.267 137.97V136.71H567.357V137.97H558.267ZM568.444 137.97V136.71H577.534V137.97H568.444ZM578.622 137.97V136.71H587.712V137.97H578.622ZM588.8 137.97V136.71H597.89V137.97H588.8ZM600.652 137.484V121.32H601.876V137.484H600.652ZM626.861 129.384C626.861 128.52 626.945 127.686 627.113 126.882C627.281 126.078 627.509 125.334 627.797 124.65C628.097 123.954 628.445 123.324 628.841 122.76C629.237 122.196 629.663 121.716 630.119 121.32H631.487C630.983 121.776 630.527 122.292 630.119 122.868C629.723 123.444 629.381 124.056 629.093 124.704C628.817 125.352 628.601 126.012 628.445 126.684C628.289 127.356 628.211 128.004 628.211 128.628V130.176C628.211 130.812 628.289 131.466 628.445 132.138C628.601 132.81 628.823 133.47 629.111 134.118C629.399 134.766 629.741 135.378 630.137 135.954C630.545 136.53 630.995 137.034 631.487 137.466H630.119C629.675 137.094 629.255 136.626 628.859 136.062C628.463 135.498 628.115 134.868 627.815 134.172C627.527 133.476 627.293 132.726 627.113 131.922C626.945 131.106 626.861 130.26 626.861 129.384ZM631.936 137.97V136.71H641.026V137.97H631.936ZM642.114 137.97V136.71H651.204V137.97H642.114ZM656.288 129.384C656.288 130.26 656.198 131.106 656.018 131.922C655.85 132.726 655.616 133.476 655.316 134.172C655.028 134.868 654.686 135.498 654.29 136.062C653.894 136.626 653.474 137.094 653.03 137.466H651.662C652.154 137.034 652.598 136.53 652.994 135.954C653.402 135.378 653.75 134.766 654.038 134.118C654.326 133.47 654.548 132.81 654.704 132.138C654.86 131.466 654.938 130.812 654.938 130.176V128.628C654.938 128.004 654.86 127.356 654.704 126.684C654.548 126.012 654.326 125.352 654.038 124.704C653.762 124.056 653.42 123.444 653.012 122.868C652.616 122.292 652.166 121.776 651.662 121.32H653.03C653.486 121.716 653.912 122.196 654.308 122.76C654.704 123.324 655.046 123.954 655.334 124.65C655.634 125.334 655.868 126.078 656.036 126.882C656.204 127.686 656.288 128.52 656.288 129.384Z" fill="#14201B"/>
<path d="M34.574 13.016L33.566 12.278L35.204 10.19L32.648 9.488L33.044 8.282L35.528 9.2L35.42 6.554H36.68L36.572 9.2L39.056 8.282L39.452 9.488L36.896 10.19L38.534 12.278L37.526 13.016L36.05 10.802L34.574 13.016ZM41.3095 13.304V12.08H49.6975V13.304H41.3095ZM41.3095 16.904V15.68H49.6975V16.904H41.3095ZM52.1025 13.304V12.08H60.4905V13.304H52.1025ZM52.1025 16.904V15.68H60.4905V16.904H52.1025ZM62.8955 13.304V12.08H71.2835V13.304H62.8955ZM62.8955 16.904V15.68H71.2835V16.904H62.8955ZM73.6884 13.304V12.08H82.0764V13.304H73.6884ZM73.6884 16.904V15.68H82.0764V16.904H73.6884ZM84.4814 13.304V12.08H92.8694V13.304H84.4814ZM84.4814 16.904V15.68H92.8694V16.904H84.4814ZM95.2744 13.304V12.08H103.662V13.304H95.2744ZM95.2744 16.904V15.68H103.662V16.904H95.2744ZM106.067 13.304V12.08H114.455V13.304H106.067ZM106.067 16.904V15.68H114.455V16.904H106.067ZM116.86 13.304V12.08H125.248V13.304H116.86ZM116.86 16.904V15.68H125.248V16.904H116.86ZM127.653 13.304V12.08H136.041V13.304H127.653ZM127.653 16.904V15.68H136.041V16.904H127.653ZM138.446 13.304V12.08H146.834V13.304H138.446ZM138.446 16.904V15.68H146.834V16.904H138.446ZM149.239 13.304V12.08H157.627V13.304H149.239ZM149.239 16.904V15.68H157.627V16.904H149.239ZM160.032 13.304V12.08H168.42V13.304H160.032ZM160.032 16.904V15.68H168.42V16.904H160.032ZM170.825 13.304V12.08H179.213V13.304H170.825ZM170.825 16.904V15.68H179.213V16.904H170.825ZM181.618 13.304V12.08H190.006V13.304H181.618ZM181.618 16.904V15.68H190.006V16.904H181.618ZM192.411 13.304V12.08H200.799V13.304H192.411ZM192.411 16.904V15.68H200.799V16.904H192.411ZM203.204 13.304V12.08H211.592V13.304H203.204ZM203.204 16.904V15.68H211.592V16.904H203.204ZM213.997 13.304V12.08H222.385V13.304H213.997ZM213.997 16.904V15.68H222.385V16.904H213.997ZM224.79 13.304V12.08H233.178V13.304H224.79ZM224.79 16.904V15.68H233.178V16.904H224.79ZM235.583 13.304V12.08H243.971V13.304H235.583ZM235.583 16.904V15.68H243.971V16.904H235.583ZM246.376 13.304V12.08H254.764V13.304H246.376ZM246.376 16.904V15.68H254.764V16.904H246.376ZM257.169 13.304V12.08H265.557V13.304H257.169ZM257.169 16.904V15.68H265.557V16.904H257.169ZM267.962 13.304V12.08H276.35V13.304H267.962ZM267.962 16.904V15.68H276.35V16.904H267.962ZM278.755 13.304V12.08H287.143V13.304H278.755ZM278.755 16.904V15.68H287.143V16.904H278.755ZM289.548 13.304V12.08H297.936V13.304H289.548ZM289.548 16.904V15.68H297.936V16.904H289.548ZM300.341 13.304V12.08H308.729V13.304H300.341ZM300.341 16.904V15.68H308.729V16.904H300.341ZM311.134 13.304V12.08H319.522V13.304H311.134ZM311.134 16.904V15.68H319.522V16.904H311.134ZM321.927 13.304V12.08H330.315V13.304H321.927ZM321.927 16.904V15.68H330.315V16.904H321.927ZM332.72 13.304V12.08H341.108V13.304H332.72ZM332.72 16.904V15.68H341.108V16.904H332.72ZM343.513 13.304V12.08H351.901V13.304H343.513ZM343.513 16.904V15.68H351.901V16.904H343.513ZM354.306 13.304V12.08H362.694V13.304H354.306ZM354.306 16.904V15.68H362.694V16.904H354.306ZM365.099 13.304V12.08H373.487V13.304H365.099ZM365.099 16.904V15.68H373.487V16.904H365.099ZM375.892 13.304V12.08H384.28V13.304H375.892ZM375.892 16.904V15.68H384.28V16.904H375.892ZM386.685 13.304V12.08H395.073V13.304H386.685ZM386.685 16.904V15.68H395.073V16.904H386.685ZM397.477 13.304V12.08H405.865V13.304H397.477ZM397.477 16.904V15.68H405.865V16.904H397.477ZM408.27 13.304V12.08H416.658V13.304H408.27ZM408.27 16.904V15.68H416.658V16.904H408.27ZM419.063 13.304V12.08H427.451V13.304H419.063ZM419.063 16.904V15.68H427.451V16.904H419.063ZM429.856 13.304V12.08H438.244V13.304H429.856ZM429.856 16.904V15.68H438.244V16.904H429.856ZM440.649 13.304V12.08H449.037V13.304H440.649ZM440.649 16.904V15.68H449.037V16.904H440.649ZM451.442 13.304V12.08H459.83V13.304H451.442ZM451.442 16.904V15.68H459.83V16.904H451.442ZM462.235 13.304V12.08H470.623V13.304H462.235ZM462.235 16.904V15.68H470.623V16.904H462.235ZM473.028 13.304V12.08H481.416V13.304H473.028ZM473.028 16.904V15.68H481.416V16.904H473.028ZM483.821 13.304V12.08H492.209V13.304H483.821ZM483.821 16.904V15.68H492.209V16.904H483.821ZM494.614 13.304V12.08H503.002V13.304H494.614ZM494.614 16.904V15.68H503.002V16.904H494.614ZM505.407 13.304V12.08H513.795V13.304H505.407ZM505.407 16.904V15.68H513.795V16.904H505.407ZM516.2 13.304V12.08H524.588V13.304H516.2ZM516.2 16.904V15.68H524.588V16.904H516.2ZM526.993 13.304V12.08H535.381V13.304H526.993ZM526.993 16.904V15.68H535.381V16.904H526.993ZM537.786 13.304V12.08H546.174V13.304H537.786ZM537.786 16.904V15.68H546.174V16.904H537.786ZM548.579 13.304V12.08H556.967V13.304H548.579ZM548.579 16.904V15.68H556.967V16.904H548.579ZM559.372 13.304V12.08H567.76V13.304H559.372ZM559.372 16.904V15.68H567.76V16.904H559.372ZM570.165 13.304V12.08H578.553V13.304H570.165ZM570.165 16.904V15.68H578.553V16.904H570.165ZM580.958 13.304V12.08H589.346V13.304H580.958ZM580.958 16.904V15.68H589.346V16.904H580.958ZM591.751 13.304V12.08H600.139V13.304H591.751ZM591.751 16.904V15.68H600.139V16.904H591.751ZM602.544 13.304V12.08H610.932V13.304H602.544ZM602.544 16.904V15.68H610.932V16.904H602.544ZM613.337 13.304V12.08H621.725V13.304H613.337ZM613.337 16.904V15.68H621.725V16.904H613.337ZM624.13 13.304V12.08H632.518V13.304H624.13ZM624.13 16.904V15.68H632.518V16.904H624.13ZM634.923 13.304V12.08H643.311V13.304H634.923ZM634.923 16.904V15.68H643.311V16.904H634.923ZM645.716 13.304V12.08H654.104V13.304H645.716ZM645.716 16.904V15.68H654.104V16.904H645.716ZM656.509 13.304V12.08H664.897V13.304H656.509ZM656.509 16.904V15.68H664.897V16.904H656.509ZM668.67 13.016L667.662 12.278L669.3 10.19L666.744 9.488L667.14 8.282L669.624 9.2L669.516 6.554H670.776L670.668 9.2L673.152 8.282L673.548 9.488L670.992 10.19L672.63 12.278L671.622 13.016L670.146 10.802L668.67 13.016ZM34.934 38.68C34.55 38.68 34.268 38.584 34.088 38.392C33.92 38.2 33.836 37.948 33.836 37.636V37.402C33.836 37.09 33.92 36.838 34.088 36.646C34.268 36.454 34.55 36.358 34.934 36.358C35.318 36.358 35.594 36.454 35.762 36.646C35.942 36.838 36.032 37.09 36.032 37.402V37.636C36.032 37.948 35.942 38.2 35.762 38.392C35.594 38.584 35.318 38.68 34.934 38.68ZM670.383 38.68C669.999 38.68 669.717 38.584 669.537 38.392C669.369 38.2 669.285 37.948 669.285 37.636V37.402C669.285 37.09 669.369 36.838 669.537 36.646C669.717 36.454 669.999 36.358 670.383 36.358C670.767 36.358 671.043 36.454 671.211 36.646C671.391 36.838 671.481 37.09 671.481 37.402V37.636C671.481 37.948 671.391 38.2 671.211 38.392C671.043 38.584 670.767 38.68 670.383 38.68ZM34.934 61.68C34.55 61.68 34.268 61.584 34.088 61.392C33.92 61.2 33.836 60.948 33.836 60.636V60.402C33.836 60.09 33.92 59.838 34.088 59.646C34.268 59.454 34.55 59.358 34.934 59.358C35.318 59.358 35.594 59.454 35.762 59.646C35.942 59.838 36.032 60.09 36.032 60.402V60.636C36.032 60.948 35.942 61.2 35.762 61.392C35.594 61.584 35.318 61.68 34.934 61.68ZM670.383 61.68C669.999 61.68 669.717 61.584 669.537 61.392C669.369 61.2 669.285 60.948 669.285 60.636V60.402C669.285 60.09 669.369 59.838 669.537 59.646C669.717 59.454 669.999 59.358 670.383 59.358C670.767 59.358 671.043 59.454 671.211 59.646C671.391 59.838 671.481 60.09 671.481 60.402V60.636C671.481 60.948 671.391 61.2 671.211 61.392C671.043 61.584 670.767 61.68 670.383 61.68ZM34.934 84.68C34.55 84.68 34.268 84.584 34.088 84.392C33.92 84.2 33.836 83.948 33.836 83.636V83.402C33.836 83.09 33.92 82.838 34.088 82.646C34.268 82.454 34.55 82.358 34.934 82.358C35.318 82.358 35.594 82.454 35.762 82.646C35.942 82.838 36.032 83.09 36.032 83.402V83.636C36.032 83.948 35.942 84.2 35.762 84.392C35.594 84.584 35.318 84.68 34.934 84.68ZM670.383 84.68C669.999 84.68 669.717 84.584 669.537 84.392C669.369 84.2 669.285 83.948 669.285 83.636V83.402C669.285 83.09 669.369 82.838 669.537 82.646C669.717 82.454 669.999 82.358 670.383 82.358C670.767 82.358 671.043 82.454 671.211 82.646C671.391 82.838 671.481 83.09 671.481 83.402V83.636C671.481 83.948 671.391 84.2 671.211 84.392C671.043 84.584 670.767 84.68 670.383 84.68ZM34.934 107.68C34.55 107.68 34.268 107.584 34.088 107.392C33.92 107.2 33.836 106.948 33.836 106.636V106.402C33.836 106.09 33.92 105.838 34.088 105.646C34.268 105.454 34.55 105.358 34.934 105.358C35.318 105.358 35.594 105.454 35.762 105.646C35.942 105.838 36.032 106.09 36.032 106.402V106.636C36.032 106.948 35.942 107.2 35.762 107.392C35.594 107.584 35.318 107.68 34.934 107.68ZM670.383 107.68C669.999 107.68 669.717 107.584 669.537 107.392C669.369 107.2 669.285 106.948 669.285 106.636V106.402C669.285 106.09 669.369 105.838 669.537 105.646C669.717 105.454 669.999 105.358 670.383 105.358C670.767 105.358 671.043 105.454 671.211 105.646C671.391 105.838 671.481 106.09 671.481 106.402V106.636C671.481 106.948 671.391 107.2 671.211 107.392C671.043 107.584 670.767 107.68 670.383 107.68ZM34.934 130.68C34.55 130.68 34.268 130.584 34.088 130.392C33.92 130.2 33.836 129.948 33.836 129.636V129.402C33.836 129.09 33.92 128.838 34.088 128.646C34.268 128.454 34.55 128.358 34.934 128.358C35.318 128.358 35.594 128.454 35.762 128.646C35.942 128.838 36.032 129.09 36.032 129.402V129.636C36.032 129.948 35.942 130.2 35.762 130.392C35.594 130.584 35.318 130.68 34.934 130.68ZM670.383 130.68C669.999 130.68 669.717 130.584 669.537 130.392C669.369 130.2 669.285 129.948 669.285 129.636V129.402C669.285 129.09 669.369 128.838 669.537 128.646C669.717 128.454 669.999 128.358 670.383 128.358C670.767 128.358 671.043 128.454 671.211 128.646C671.391 128.838 671.481 129.09 671.481 129.402V129.636C671.481 129.948 671.391 130.2 671.211 130.392C671.043 130.584 670.767 130.68 670.383 130.68ZM34.574 151.016L33.566 150.278L35.204 148.19L32.648 147.488L33.044 146.282L35.528 147.2L35.42 144.554H36.68L36.572 147.2L39.056 146.282L39.452 147.488L36.896 148.19L38.534 150.278L37.526 151.016L36.05 148.802L34.574 151.016ZM41.3095 151.304V150.08H49.6975V151.304H41.3095ZM41.3095 154.904V153.68H49.6975V154.904H41.3095ZM52.1025 151.304V150.08H60.4905V151.304H52.1025ZM52.1025 154.904V153.68H60.4905V154.904H52.1025ZM62.8955 151.304V150.08H71.2835V151.304H62.8955ZM62.8955 154.904V153.68H71.2835V154.904H62.8955ZM73.6884 151.304V150.08H82.0764V151.304H73.6884ZM73.6884 154.904V153.68H82.0764V154.904H73.6884ZM84.4814 151.304V150.08H92.8694V151.304H84.4814ZM84.4814 154.904V153.68H92.8694V154.904H84.4814ZM95.2744 151.304V150.08H103.662V151.304H95.2744ZM95.2744 154.904V153.68H103.662V154.904H95.2744ZM106.067 151.304V150.08H114.455V151.304H106.067ZM106.067 154.904V153.68H114.455V154.904H106.067ZM116.86 151.304V150.08H125.248V151.304H116.86ZM116.86 154.904V153.68H125.248V154.904H116.86ZM127.653 151.304V150.08H136.041V151.304H127.653ZM127.653 154.904V153.68H136.041V154.904H127.653ZM138.446 151.304V150.08H146.834V151.304H138.446ZM138.446 154.904V153.68H146.834V154.904H138.446ZM149.239 151.304V150.08H157.627V151.304H149.239ZM149.239 154.904V153.68H157.627V154.904H149.239ZM160.032 151.304V150.08H168.42V151.304H160.032ZM160.032 154.904V153.68H168.42V154.904H160.032ZM170.825 151.304V150.08H179.213V151.304H170.825ZM170.825 154.904V153.68H179.213V154.904H170.825ZM181.618 151.304V150.08H190.006V151.304H181.618ZM181.618 154.904V153.68H190.006V154.904H181.618ZM192.411 151.304V150.08H200.799V151.304H192.411ZM192.411 154.904V153.68H200.799V154.904H192.411ZM203.204 151.304V150.08H211.592V151.304H203.204ZM203.204 154.904V153.68H211.592V154.904H203.204ZM213.997 151.304V150.08H222.385V151.304H213.997ZM213.997 154.904V153.68H222.385V154.904H213.997ZM224.79 151.304V150.08H233.178V151.304H224.79ZM224.79 154.904V153.68H233.178V154.904H224.79ZM235.583 151.304V150.08H243.971V151.304H235.583ZM235.583 154.904V153.68H243.971V154.904H235.583ZM246.376 151.304V150.08H254.764V151.304H246.376ZM246.376 154.904V153.68H254.764V154.904H246.376ZM257.169 151.304V150.08H265.557V151.304H257.169ZM257.169 154.904V153.68H265.557V154.904H257.169ZM267.962 151.304V150.08H276.35V151.304H267.962ZM267.962 154.904V153.68H276.35V154.904H267.962ZM278.755 151.304V150.08H287.143V151.304H278.755ZM278.755 154.904V153.68H287.143V154.904H278.755ZM289.548 151.304V150.08H297.936V151.304H289.548ZM289.548 154.904V153.68H297.936V154.904H289.548ZM300.341 151.304V150.08H308.729V151.304H300.341ZM300.341 154.904V153.68H308.729V154.904H300.341ZM311.134 151.304V150.08H319.522V151.304H311.134ZM311.134 154.904V153.68H319.522V154.904H311.134ZM321.927 151.304V150.08H330.315V151.304H321.927ZM321.927 154.904V153.68H330.315V154.904H321.927ZM332.72 151.304V150.08H341.108V151.304H332.72ZM332.72 154.904V153.68H341.108V154.904H332.72ZM343.513 151.304V150.08H351.901V151.304H343.513ZM343.513 154.904V153.68H351.901V154.904H343.513ZM354.306 151.304V150.08H362.694V151.304H354.306ZM354.306 154.904V153.68H362.694V154.904H354.306ZM365.099 151.304V150.08H373.487V151.304H365.099ZM365.099 154.904V153.68H373.487V154.904H365.099ZM375.892 151.304V150.08H384.28V151.304H375.892ZM375.892 154.904V153.68H384.28V154.904H375.892ZM386.685 151.304V150.08H395.073V151.304H386.685ZM386.685 154.904V153.68H395.073V154.904H386.685ZM397.477 151.304V150.08H405.865V151.304H397.477ZM397.477 154.904V153.68H405.865V154.904H397.477ZM408.27 151.304V150.08H416.658V151.304H408.27ZM408.27 154.904V153.68H416.658V154.904H408.27ZM419.063 151.304V150.08H427.451V151.304H419.063ZM419.063 154.904V153.68H427.451V154.904H419.063ZM429.856 151.304V150.08H438.244V151.304H429.856ZM429.856 154.904V153.68H438.244V154.904H429.856ZM440.649 151.304V150.08H449.037V151.304H440.649ZM440.649 154.904V153.68H449.037V154.904H440.649ZM451.442 151.304V150.08H459.83V151.304H451.442ZM451.442 154.904V153.68H459.83V154.904H451.442ZM462.235 151.304V150.08H470.623V151.304H462.235ZM462.235 154.904V153.68H470.623V154.904H462.235ZM473.028 151.304V150.08H481.416V151.304H473.028ZM473.028 154.904V153.68H481.416V154.904H473.028ZM483.821 151.304V150.08H492.209V151.304H483.821ZM483.821 154.904V153.68H492.209V154.904H483.821ZM494.614 151.304V150.08H503.002V151.304H494.614ZM494.614 154.904V153.68H503.002V154.904H494.614ZM505.407 151.304V150.08H513.795V151.304H505.407ZM505.407 154.904V153.68H513.795V154.904H505.407ZM516.2 151.304V150.08H524.588V151.304H516.2ZM516.2 154.904V153.68H524.588V154.904H516.2ZM526.993 151.304V150.08H535.381V151.304H526.993ZM526.993 154.904V153.68H535.381V154.904H526.993ZM537.786 151.304V150.08H546.174V151.304H537.786ZM537.786 154.904V153.68H546.174V154.904H537.786ZM548.579 151.304V150.08H556.967V151.304H548.579ZM548.579 154.904V153.68H556.967V154.904H548.579ZM559.372 151.304V150.08H567.76V151.304H559.372ZM559.372 154.904V153.68H567.76V154.904H559.372ZM570.165 151.304V150.08H578.553V151.304H570.165ZM570.165 154.904V153.68H578.553V154.904H570.165ZM580.958 151.304V150.08H589.346V151.304H580.958ZM580.958 154.904V153.68H589.346V154.904H580.958ZM591.751 151.304V150.08H600.139V151.304H591.751ZM591.751 154.904V153.68H600.139V154.904H591.751ZM602.544 151.304V150.08H610.932V151.304H602.544ZM602.544 154.904V153.68H610.932V154.904H602.544ZM613.337 151.304V150.08H621.725V151.304H613.337ZM613.337 154.904V153.68H621.725V154.904H613.337ZM624.13 151.304V150.08H632.518V151.304H624.13ZM624.13 154.904V153.68H632.518V154.904H624.13ZM634.923 151.304V150.08H643.311V151.304H634.923ZM634.923 154.904V153.68H643.311V154.904H634.923ZM645.716 151.304V150.08H654.104V151.304H645.716ZM645.716 154.904V153.68H654.104V154.904H645.716ZM656.509 151.304V150.08H664.897V151.304H656.509ZM656.509 154.904V153.68H664.897V154.904H656.509ZM668.67 151.016L667.662 150.278L669.3 148.19L666.744 147.488L667.14 146.282L669.624 147.2L669.516 144.554H670.776L670.668 147.2L673.152 146.282L673.548 147.488L670.992 148.19L672.63 150.278L671.622 151.016L670.146 148.802L668.67 151.016Z" fill="#14201B"/>
</svg>
