<svg width="466" height="198" viewBox="0 0 466 198" fill="none" xmlns="http://www.w3.org/2000/svg">
<rect x="28.2275" y="0.0500488" width="14.1139" height="14.1375" fill="#00FF17"/>
<rect y="28.3251" width="14.1139" height="14.1375" fill="#00FF17"/>
<rect x="14.1143" y="14.1875" width="14.1139" height="14.1375" fill="#00FF17"/>
<rect x="70.5693" y="0.0500488" width="14.1139" height="14.1375" fill="#00FF17"/>
<rect x="14.1143" y="56.6001" width="14.1139" height="14.1375" fill="#00FF17"/>
<rect x="42.3418" y="28.3251" width="14.1139" height="14.1375" fill="#00FF17"/>
<rect x="56.4551" y="14.1875" width="14.1139" height="14.1375" fill="#00FF17"/>
<rect y="70.7375" width="14.1139" height="14.1375" fill="#00FF17"/>
<rect x="28.2275" y="42.4625" width="14.1139" height="14.1375" fill="#00FF17"/>
<rect x="112.911" y="0.0500488" width="14.1139" height="14.1375" fill="#00FF17"/>
<rect y="113.15" width="14.1139" height="14.1375" fill="#00FF17"/>
<rect x="56.4551" y="56.6001" width="14.1139" height="14.1375" fill="#00FF17"/>
<rect x="84.6836" y="28.3251" width="14.1139" height="14.1375" fill="#00FF17"/>
<rect x="28.2275" y="84.875" width="14.1139" height="14.1375" fill="#00FF17"/>
<rect x="98.7969" y="14.1875" width="14.1139" height="14.1375" fill="#00FF17"/>
<rect x="42.3418" y="70.7375" width="14.1139" height="14.1375" fill="#00FF17"/>
<rect x="70.5693" y="42.4625" width="14.1139" height="14.1375" fill="#00FF17"/>
<rect x="14.1143" y="99.0126" width="14.1139" height="14.1375" fill="#00FF17"/>
<rect x="155.253" y="0.0500488" width="14.1139" height="14.1375" fill="#00FF17"/>
<rect x="42.3418" y="113.15" width="14.1139" height="14.1375" fill="#00FF17"/>
<rect x="98.7969" y="56.6001" width="14.1139" height="14.1375" fill="#00FF17"/>
<rect x="127.024" y="28.3251" width="14.1139" height="14.1375" fill="#00FF17"/>
<rect x="14.1143" y="141.425" width="14.1139" height="14.1375" fill="#00FF17"/>
<rect x="70.5693" y="84.875" width="14.1139" height="14.1375" fill="#00FF17"/>
<rect x="141.139" y="14.1875" width="14.1139" height="14.1375" fill="#00FF17"/>
<rect x="28.2275" y="127.288" width="14.1139" height="14.1375" fill="#00FF17"/>
<rect x="84.6836" y="70.7375" width="14.1139" height="14.1375" fill="#00FF17"/>
<rect x="112.911" y="42.4625" width="14.1139" height="14.1375" fill="#00FF17"/>
<rect y="155.562" width="14.1139" height="14.1375" fill="#00FF17"/>
<rect x="56.4551" y="99.0126" width="14.1139" height="14.1375" fill="#00FF17"/>
<rect x="197.595" y="0.0500488" width="14.1139" height="14.1375" fill="#00FF17"/>
<rect x="84.6836" y="113.15" width="14.1139" height="14.1375" fill="#00FF17"/>
<rect x="141.139" y="56.6001" width="14.1139" height="14.1375" fill="#00FF17"/>
<rect x="28.2285" y="169.7" width="14.1139" height="14.1375" fill="#00FF17"/>
<rect x="169.367" y="28.3251" width="14.1139" height="14.1375" fill="#00FF17"/>
<rect x="56.4561" y="141.425" width="14.1139" height="14.1375" fill="#00FF17"/>
<rect x="112.911" y="84.875" width="14.1139" height="14.1375" fill="#00FF17"/>
<rect x="183.48" y="14.1875" width="14.1139" height="14.1375" fill="#00FF17"/>
<rect x="70.5693" y="127.288" width="14.1139" height="14.1375" fill="#00FF17"/>
<rect x="127.025" y="70.7375" width="14.1139" height="14.1375" fill="#00FF17"/>
<rect x="14.1143" y="183.838" width="14.1139" height="14.1375" fill="#00FF17"/>
<rect x="155.253" y="42.4625" width="14.1139" height="14.1375" fill="#00FF17"/>
<rect x="42.3418" y="155.562" width="14.1139" height="14.1375" fill="#00FF17"/>
<rect x="98.7979" y="99.0126" width="14.1139" height="14.1375" fill="#00FF17"/>
<rect x="239.936" y="0.0500488" width="14.1139" height="14.1375" fill="#00FF17"/>
<rect x="127.024" y="113.15" width="14.1139" height="14.1375" fill="#00FF17"/>
<rect x="183.479" y="56.6001" width="14.1139" height="14.1375" fill="#00FF17"/>
<rect x="70.5693" y="169.7" width="14.1139" height="14.1375" fill="#00FF17"/>
<rect x="211.708" y="28.3251" width="14.1139" height="14.1375" fill="#00FF17"/>
<rect x="98.7969" y="141.425" width="14.1139" height="14.1375" fill="#00FF17"/>
<rect x="155.252" y="84.875" width="14.1139" height="14.1375" fill="#00FF17"/>
<rect x="225.821" y="14.1875" width="14.1139" height="14.1375" fill="#00FF17"/>
<rect x="112.91" y="127.288" width="14.1139" height="14.1375" fill="#00FF17"/>
<rect x="169.366" y="70.7375" width="14.1139" height="14.1375" fill="#00FF17"/>
<rect x="56.4551" y="183.838" width="14.1139" height="14.1375" fill="#00FF17"/>
<rect x="197.594" y="42.4625" width="14.1139" height="14.1375" fill="#00FF17"/>
<rect x="84.6826" y="155.562" width="14.1139" height="14.1375" fill="#00FF17"/>
<rect x="141.139" y="99.0126" width="14.1139" height="14.1375" fill="#00FF17"/>
<rect x="282.277" y="0.0500488" width="14.1139" height="14.1375" fill="#00FF17"/>
<rect x="169.366" y="113.15" width="14.1139" height="14.1375" fill="#00FF17"/>
<rect x="225.821" y="56.6001" width="14.1139" height="14.1375" fill="#00FF17"/>
<rect x="112.911" y="169.7" width="14.1139" height="14.1375" fill="#00FF17"/>
<rect x="254.05" y="28.3251" width="14.1139" height="14.1375" fill="#00FF17"/>
<rect x="141.139" y="141.425" width="14.1139" height="14.1375" fill="#00FF17"/>
<rect x="197.594" y="84.875" width="14.1139" height="14.1375" fill="#00FF17"/>
<rect x="268.163" y="14.1875" width="14.1139" height="14.1375" fill="#00FF17"/>
<rect x="155.252" y="127.288" width="14.1139" height="14.1375" fill="#00FF17"/>
<rect x="211.708" y="70.7375" width="14.1139" height="14.1375" fill="#00FF17"/>
<rect x="98.7969" y="183.838" width="14.1139" height="14.1375" fill="#00FF17"/>
<rect x="239.936" y="42.4625" width="14.1139" height="14.1375" fill="#00FF17"/>
<rect x="127.024" y="155.562" width="14.1139" height="14.1375" fill="#00FF17"/>
<rect x="183.48" y="99.0126" width="14.1139" height="14.1375" fill="#00FF17"/>
<rect x="324.619" y="0.0500488" width="14.1139" height="14.1375" fill="#00FF17"/>
<rect x="211.708" y="113.15" width="14.1139" height="14.1375" fill="#00FF17"/>
<rect x="268.163" y="56.6001" width="14.1139" height="14.1375" fill="#00FF17"/>
<rect x="155.253" y="169.7" width="14.1139" height="14.1375" fill="#00FF17"/>
<rect x="296.392" y="28.3251" width="14.1139" height="14.1375" fill="#00FF17"/>
<rect x="183.48" y="141.425" width="14.1139" height="14.1375" fill="#00FF17"/>
<rect x="239.936" y="84.875" width="14.1139" height="14.1375" fill="#00FF17"/>
<rect x="310.505" y="14.1875" width="14.1139" height="14.1375" fill="#00FF17"/>
<rect x="197.594" y="127.288" width="14.1139" height="14.1375" fill="#00FF17"/>
<rect x="254.05" y="70.7375" width="14.1139" height="14.1375" fill="#00FF17"/>
<rect x="141.139" y="183.838" width="14.1139" height="14.1375" fill="#00FF17"/>
<rect x="282.277" y="42.4625" width="14.1139" height="14.1375" fill="#00FF17"/>
<rect x="169.366" y="155.562" width="14.1139" height="14.1375" fill="#00FF17"/>
<rect x="225.822" y="99.0126" width="14.1139" height="14.1375" fill="#00FF17"/>
<rect x="366.961" y="0.0500488" width="14.1139" height="14.1375" fill="#00FF17"/>
<rect x="254.05" y="113.15" width="14.1139" height="14.1375" fill="#00FF17"/>
<rect x="310.505" y="56.6001" width="14.1139" height="14.1375" fill="#00FF17"/>
<rect x="197.595" y="169.7" width="14.1139" height="14.1375" fill="#00FF17"/>
<rect x="338.733" y="28.3251" width="14.1139" height="14.1375" fill="#00FF17"/>
<rect x="225.822" y="141.425" width="14.1139" height="14.1375" fill="#00FF17"/>
<rect x="282.277" y="84.875" width="14.1139" height="14.1375" fill="#00FF17"/>
<rect x="352.847" y="14.1875" width="14.1139" height="14.1375" fill="#00FF17"/>
<rect x="239.936" y="127.288" width="14.1139" height="14.1375" fill="#00FF17"/>
<rect x="296.392" y="70.7375" width="14.1139" height="14.1375" fill="#00FF17"/>
<rect x="183.48" y="183.838" width="14.1139" height="14.1375" fill="#00FF17"/>
<rect x="324.619" y="42.4625" width="14.1139" height="14.1375" fill="#00FF17"/>
<rect x="211.708" y="155.562" width="14.1139" height="14.1375" fill="#00FF17"/>
<rect x="268.164" y="99.0126" width="14.1139" height="14.1375" fill="#00FF17"/>
<rect x="409.303" y="0.0500488" width="14.1139" height="14.1375" fill="#00FF17"/>
<rect x="296.392" y="113.15" width="14.1139" height="14.1375" fill="#00FF17"/>
<rect x="352.847" y="56.6001" width="14.1139" height="14.1375" fill="#00FF17"/>
<rect x="239.937" y="169.7" width="14.1139" height="14.1375" fill="#00FF17"/>
<rect x="381.075" y="28.3251" width="14.1139" height="14.1375" fill="#00FF17"/>
<rect x="268.164" y="141.425" width="14.1139" height="14.1375" fill="#00FF17"/>
<rect x="324.619" y="84.875" width="14.1139" height="14.1375" fill="#00FF17"/>
<rect x="395.188" y="14.1875" width="14.1139" height="14.1375" fill="#00FF17"/>
<rect x="282.277" y="127.288" width="14.1139" height="14.1375" fill="#00FF17"/>
<rect x="338.733" y="70.7375" width="14.1139" height="14.1375" fill="#00FF17"/>
<rect x="225.822" y="183.838" width="14.1139" height="14.1375" fill="#00FF17"/>
<rect x="366.961" y="42.4625" width="14.1139" height="14.1375" fill="#00FF17"/>
<rect x="254.05" y="155.562" width="14.1139" height="14.1375" fill="#00FF17"/>
<rect x="310.506" y="99.0126" width="14.1139" height="14.1375" fill="#00FF17"/>
<rect x="451.644" y="0.0500488" width="14.1139" height="14.1375" fill="#00FF17"/>
<rect x="338.732" y="113.15" width="14.1139" height="14.1375" fill="#00FF17"/>
<rect x="395.188" y="56.6001" width="14.1139" height="14.1375" fill="#00FF17"/>
<rect x="282.277" y="169.7" width="14.1139" height="14.1375" fill="#00FF17"/>
<rect x="423.416" y="28.3251" width="14.1139" height="14.1375" fill="#00FF17"/>
<rect x="310.505" y="141.425" width="14.1139" height="14.1375" fill="#00FF17"/>
<rect x="366.96" y="84.875" width="14.1139" height="14.1375" fill="#00FF17"/>
<rect x="437.529" y="14.1875" width="14.1139" height="14.1375" fill="#00FF17"/>
<rect x="324.618" y="127.288" width="14.1139" height="14.1375" fill="#00FF17"/>
<rect x="381.074" y="70.7375" width="14.1139" height="14.1375" fill="#00FF17"/>
<rect x="268.163" y="183.838" width="14.1139" height="14.1375" fill="#00FF17"/>
<rect x="409.302" y="42.4625" width="14.1139" height="14.1375" fill="#00FF17"/>
<rect x="296.391" y="155.562" width="14.1139" height="14.1375" fill="#00FF17"/>
<rect x="352.847" y="99.0126" width="14.1139" height="14.1375" fill="#00FF17"/>
<rect x="381.074" y="113.15" width="14.1139" height="14.1375" fill="#00FF17"/>
<rect x="437.529" y="56.6" width="14.1139" height="14.1375" fill="#00FF17"/>
<rect x="324.619" y="169.7" width="14.1139" height="14.1375" fill="#00FF17"/>
<rect x="352.847" y="141.425" width="14.1139" height="14.1375" fill="#00FF17"/>
<rect x="409.302" y="84.875" width="14.1139" height="14.1375" fill="#00FF17"/>
<rect x="366.96" y="127.287" width="14.1139" height="14.1375" fill="#00FF17"/>
<rect x="423.416" y="70.7375" width="14.1139" height="14.1375" fill="#00FF17"/>
<rect x="310.505" y="183.838" width="14.1139" height="14.1375" fill="#00FF17"/>
<rect x="451.644" y="42.4625" width="14.1139" height="14.1375" fill="#00FF17"/>
<rect x="338.732" y="155.562" width="14.1139" height="14.1375" fill="#00FF17"/>
<rect x="395.188" y="99.0126" width="14.1139" height="14.1375" fill="#00FF17"/>
<rect x="423.416" y="113.15" width="14.1139" height="14.1375" fill="#00FF17"/>
<rect x="366.961" y="169.7" width="14.1139" height="14.1375" fill="#00FF17"/>
<rect x="395.188" y="141.425" width="14.1139" height="14.1375" fill="#00FF17"/>
<rect x="451.644" y="84.875" width="14.1139" height="14.1375" fill="#00FF17"/>
<rect x="409.302" y="127.287" width="14.1139" height="14.1375" fill="#00FF17"/>
<rect x="352.847" y="183.838" width="14.1139" height="14.1375" fill="#00FF17"/>
<rect x="381.074" y="155.562" width="14.1139" height="14.1375" fill="#00FF17"/>
<rect x="437.53" y="99.0125" width="14.1139" height="14.1375" fill="#00FF17"/>
<rect x="409.303" y="169.7" width="14.1139" height="14.1375" fill="#00FF17"/>
<rect x="437.53" y="141.425" width="14.1139" height="14.1375" fill="#00FF17"/>
<rect x="451.644" y="127.288" width="14.1139" height="14.1375" fill="#00FF17"/>
<rect x="395.188" y="183.838" width="14.1139" height="14.1375" fill="#00FF17"/>
<rect x="423.416" y="155.563" width="14.1139" height="14.1375" fill="#00FF17"/>
<rect x="451.644" y="169.7" width="14.1139" height="14.1375" fill="#00FF17"/>
<rect x="437.529" y="183.838" width="14.1139" height="14.1375" fill="#00FF17"/>
</svg>
