<svg width="500" height="500" viewBox="0 0 500 500" fill="none" xmlns="http://www.w3.org/2000/svg">
<path d="M222.097 214.273V287H213.29V223.506H212.864L195.108 235.295V226.347L213.29 214.273H222.097ZM249.263 277.696C247.511 277.696 246.008 277.069 244.753 275.814C243.498 274.559 242.871 273.056 242.871 271.304C242.871 269.552 243.498 268.049 244.753 266.794C246.008 265.539 247.511 264.912 249.263 264.912C251.015 264.912 252.518 265.539 253.773 266.794C255.027 268.049 255.655 269.552 255.655 271.304C255.655 272.464 255.359 273.529 254.767 274.5C254.199 275.471 253.429 276.252 252.459 276.844C251.512 277.412 250.446 277.696 249.263 277.696ZM249.263 240.906C247.511 240.906 246.008 240.279 244.753 239.024C243.498 237.769 242.871 236.266 242.871 234.514C242.871 232.762 243.498 231.259 244.753 230.004C246.008 228.75 247.511 228.122 249.263 228.122C251.015 228.122 252.518 228.75 253.773 230.004C255.027 231.259 255.655 232.762 255.655 234.514C255.655 235.674 255.359 236.74 254.767 237.71C254.199 238.681 253.429 239.462 252.459 240.054C251.512 240.622 250.446 240.906 249.263 240.906ZM296.12 214.273V287H287.313V223.506H286.887L269.131 235.295V226.347L287.313 214.273H296.12Z" fill="#00FF17"/>
<path d="M222.097 214.273H223.097V213.273H222.097V214.273ZM222.097 287V288H223.097V287H222.097ZM213.29 287H212.29V288H213.29V287ZM213.29 223.506H214.29V222.506H213.29V223.506ZM212.864 223.506V222.506H212.562L212.31 222.673L212.864 223.506ZM195.108 235.295H194.108V237.16L195.661 236.129L195.108 235.295ZM195.108 226.347L194.555 225.514L194.108 225.81V226.347H195.108ZM213.29 214.273V213.273H212.988L212.737 213.44L213.29 214.273ZM221.097 214.273V287H223.097V214.273H221.097ZM222.097 286H213.29V288H222.097V286ZM214.29 287V223.506H212.29V287H214.29ZM213.29 222.506H212.864V224.506H213.29V222.506ZM212.31 222.673L194.555 234.462L195.661 236.129L213.417 224.339L212.31 222.673ZM196.108 235.295V226.347H194.108V235.295H196.108ZM195.661 227.18L213.843 215.106L212.737 213.44L194.555 225.514L195.661 227.18ZM213.29 215.273H222.097V213.273H213.29V215.273ZM244.753 275.814L244.046 276.521L244.753 275.814ZM244.753 266.794L244.046 266.087L244.753 266.794ZM253.773 266.794L254.48 266.087L253.773 266.794ZM254.767 274.5L253.913 273.979L253.909 273.987L253.904 273.995L254.767 274.5ZM252.459 276.844L252.973 277.701L252.979 277.698L252.459 276.844ZM244.753 230.004L245.46 230.711L244.753 230.004ZM253.773 230.004L253.066 230.711L253.773 230.004ZM254.767 237.71L253.913 237.19L253.909 237.197L253.904 237.205L254.767 237.71ZM252.459 240.054L252.973 240.911L252.979 240.908L252.459 240.054ZM249.263 276.696C247.78 276.696 246.53 276.177 245.46 275.107L244.046 276.521C245.485 277.961 247.242 278.696 249.263 278.696V276.696ZM245.46 275.107C244.39 274.037 243.871 272.787 243.871 271.304H241.871C241.871 273.325 242.606 275.081 244.046 276.521L245.46 275.107ZM243.871 271.304C243.871 269.821 244.39 268.571 245.46 267.501L244.046 266.087C242.606 267.526 241.871 269.283 241.871 271.304H243.871ZM245.46 267.501C246.53 266.431 247.78 265.912 249.263 265.912V263.912C247.242 263.912 245.485 264.647 244.046 266.087L245.46 267.501ZM249.263 265.912C250.746 265.912 251.996 266.431 253.066 267.501L254.48 266.087C253.04 264.647 251.284 263.912 249.263 263.912V265.912ZM253.066 267.501C254.136 268.571 254.655 269.821 254.655 271.304H256.655C256.655 269.283 255.919 267.526 254.48 266.087L253.066 267.501ZM254.655 271.304C254.655 272.284 254.407 273.169 253.913 273.979L255.621 275.021C256.31 273.89 256.655 272.644 256.655 271.304H254.655ZM253.904 273.995C253.42 274.821 252.769 275.483 251.938 275.99L252.979 277.698C254.09 277.021 254.977 276.12 255.63 275.005L253.904 273.995ZM251.944 275.986C251.164 276.454 250.279 276.696 249.263 276.696V278.696C250.614 278.696 251.86 278.369 252.973 277.701L251.944 275.986ZM249.263 239.906C247.78 239.906 246.53 239.387 245.46 238.317L244.046 239.731C245.485 241.171 247.242 241.906 249.263 241.906V239.906ZM245.46 238.317C244.39 237.247 243.871 235.997 243.871 234.514H241.871C241.871 236.535 242.606 238.292 244.046 239.731L245.46 238.317ZM243.871 234.514C243.871 233.031 244.39 231.781 245.46 230.711L244.046 229.297C242.606 230.737 241.871 232.493 241.871 234.514H243.871ZM245.46 230.711C246.53 229.641 247.78 229.122 249.263 229.122V227.122C247.242 227.122 245.485 227.858 244.046 229.297L245.46 230.711ZM249.263 229.122C250.746 229.122 251.996 229.641 253.066 230.711L254.48 229.297C253.04 227.858 251.284 227.122 249.263 227.122V229.122ZM253.066 230.711C254.136 231.781 254.655 233.031 254.655 234.514H256.655C256.655 232.493 255.919 230.737 254.48 229.297L253.066 230.711ZM254.655 234.514C254.655 235.495 254.407 236.379 253.913 237.19L255.621 238.231C256.31 237.1 256.655 235.854 256.655 234.514H254.655ZM253.904 237.205C253.42 238.031 252.769 238.693 251.938 239.2L252.979 240.908C254.09 240.231 254.977 239.33 255.63 238.215L253.904 237.205ZM251.944 239.196C251.164 239.665 250.279 239.906 249.263 239.906V241.906C250.614 241.906 251.86 241.58 252.973 240.911L251.944 239.196ZM296.12 214.273H297.12V213.273H296.12V214.273ZM296.12 287V288H297.12V287H296.12ZM287.313 287H286.313V288H287.313V287ZM287.313 223.506H288.313V222.506H287.313V223.506ZM286.887 223.506V222.506H286.585L286.334 222.673L286.887 223.506ZM269.131 235.295H268.131V237.16L269.685 236.129L269.131 235.295ZM269.131 226.347L268.578 225.514L268.131 225.81V226.347H269.131ZM287.313 214.273V213.273H287.011L286.76 213.44L287.313 214.273ZM295.12 214.273V287H297.12V214.273H295.12ZM296.12 286H287.313V288H296.12V286ZM288.313 287V223.506H286.313V287H288.313ZM287.313 222.506H286.887V224.506H287.313V222.506ZM286.334 222.673L268.578 234.462L269.685 236.129L287.44 224.339L286.334 222.673ZM270.131 235.295V226.347H268.131V235.295H270.131ZM269.685 227.18L287.866 215.106L286.76 213.44L268.578 225.514L269.685 227.18ZM287.313 215.273H296.12V213.273H287.313V215.273Z" fill="#00FF17"/>
</svg>
